<svg width="40" height="29" viewBox="0 0 40 29" preserveAspectRatio="none" xmlns="http://www.w3.org/2000/svg"><g>
<path d="M19.9977 0C8.95279 0 0 8.77772 0 19.6105V29H3.68698V28.0642C3.68698 23.6708 7.31668 20.109 11.7965 20.109C16.2764 20.109 19.906 23.6708 19.906 28.0642V29H23.593V28.0642C23.593 21.6747 18.3112 16.4973 11.7965 16.4973C9.25985 16.4973 6.91109 17.2813 4.98625 18.6204C7.00046 14.696 11.1457 12.002 15.9326 12.002C22.6948 12.002 28.1783 17.381 28.1783 24.0107V29H31.8653V24.0107C31.8653 15.3825 24.7319 8.38573 15.9326 8.38573C11.9753 8.38573 8.35701 9.79959 5.57058 12.1424C8.3066 7.0693 13.7397 3.61395 20 3.61395C29.0101 3.61395 36.313 10.7762 36.313 19.6105V29H40V19.6105C39.9977 8.77772 31.0449 0 19.9977 0Z" fill="black"></path>
</g></svg>