<svg xmlns="http://www.w3.org/2000/svg" viewBox="848 2674 444 300" width="444" height="300" fill="none" preserveAspectRatio="xMidYMid slice">
<g clip-path="url(#clip8_1_4)">
<path d="M848 2680C848 2676.69 850.686 2674 854 2674H1286C1289.31 2674 1292 2676.69 1292 2680V2974H848V2680Z" fill="url(#paint7_linear_1_4)"/>
<path d="M1689.54 1672C1816.63 1672 1935.09 1746.67 2023.37 1882.52L2025.21 1885.35V1885.26C2109.52 2016.71 2156 2190.31 2156 2374.44C2156 2558.46 2109.58 2731.96 2025.37 2863.38L2023.37 2866.48C1935.2 3002.33 1816.63 3077 1689.65 3077C1611.68 3077 1537.19 3048.8 1470.71 2995.84L1470.41 2995.6L1470.02 2995.62C1466.51 2995.85 1462.91 2996.07 1459.43 2996.07C1369.14 2996.07 1283.68 2953.12 1213.22 2873.6L1213.05 2873.42L1212.82 2873.33L1211.42 2872.79C1152.26 2849.83 1098.35 2803.34 1054.52 2736.43L1054.38 2736.21L1054.15 2736.09L1052.99 2735.46C954.051 2681.34 885 2539.4 885 2374.33C885 2208.61 952.368 2070.6 1049.61 2015.16L1049.82 2015.04L1049.95 2014.84C1050.37 2014.2 1050.76 2013.56 1051.14 2012.94C1051.52 2012.32 1051.89 2011.71 1052.29 2011.1L1052.29 2011.1C1098.46 1939.36 1156.14 1890.75 1219.36 1868.55L1219.59 1868.46L1219.76 1868.28C1288.93 1793.4 1371.7 1752.93 1459.32 1752.93C1462.95 1752.93 1466.44 1753.26 1470.06 1753.38L1470.42 1753.39L1470.71 1753.16C1537.07 1700.2 1611.68 1672 1689.54 1672ZM1689.54 1725.91C1639.81 1725.91 1592.33 1739.89 1548.28 1765.44L1546.34 1766.56L1548.47 1767.25C1626.42 1792.74 1697.57 1851.65 1754.27 1939.68V1939.68C1829.44 2056.18 1870.86 2210.48 1870.86 2374.44C1870.86 2538.4 1829.33 2692.71 1754.27 2809.21C1697.57 2897.24 1626.42 2956.14 1548.47 2981.63L1546.35 2982.33L1548.28 2983.45C1592.33 3009.11 1639.92 3023.09 1689.54 3023.09H1690.54V3022.97C1803.49 3022.54 1905.75 2949.72 1979.79 2832.65C2054.06 2715.23 2100.04 2553.15 2100.04 2374.44C2100.04 2195.73 2054.06 2033.66 1979.79 1916.23C1905.53 1798.82 1802.88 1725.91 1689.54 1725.91ZM1488.62 1809.47C1464.21 1831.37 1441.33 1857 1420.21 1886.03L1419.55 1886.94L1420.53 1887.49C1467.32 1913.77 1510.19 1955.52 1545.95 2011.21H1545.95C1608.12 2107.91 1642.51 2236.29 1642.51 2372.18C1642.51 2507.01 1608.77 2634.34 1547.4 2730.88L1545.95 2733.15C1509.49 2789.74 1465.8 2832.06 1417.97 2858.34L1417.45 2858.62V2859.65L1417.63 2859.91C1439.45 2890.41 1463.16 2917.18 1488.63 2939.87L1488.97 2940.17L1489.43 2940.11C1580.6 2927.89 1661.97 2860.58 1720.52 2759.39C1779.09 2658.19 1814.9 2522.98 1814.9 2374.67C1814.9 2226.36 1779.09 2091.15 1720.52 1989.95C1661.97 1888.76 1580.6 1821.45 1489.43 1809.23L1488.97 1809.16L1488.62 1809.47ZM1364.31 2880.32C1347.39 2885.06 1330.14 2888.1 1312.54 2889L1309.72 2889.15L1312 2890.81C1341.25 2912.15 1372.51 2927.49 1405.33 2935.57L1408.39 2936.32L1406.32 2933.94C1392.06 2917.56 1378.5 2899.71 1365.4 2880.72L1365 2880.13L1364.31 2880.32ZM1277.28 2708.71C1252.55 2729.57 1225.27 2744.77 1196.04 2752.87L1194.81 2753.22L1195.44 2754.33C1210.45 2780.98 1227 2805.25 1244.95 2827.03L1245.14 2827.26L1245.43 2827.35C1262.73 2832.69 1280.63 2835.54 1299 2835.54C1310.67 2835.54 1322.09 2834.29 1333.39 2832.13L1334.75 2831.86L1334.07 2830.65C1312.79 2792.9 1294.31 2752.21 1278.87 2709.13L1278.38 2707.78L1277.28 2708.71ZM1389.13 1933.08C1362.27 1978.77 1339.52 2030.56 1321.82 2086.88L1321.67 2087.37L1321.97 2087.78C1374.17 2157.86 1406.56 2259.51 1406.56 2374.33C1406.56 2489.26 1374.17 2590.91 1321.86 2660.88L1321.55 2661.29L1321.71 2661.78C1338.94 2716.62 1360.98 2767.29 1386.9 2812.06L1387.38 2812.9L1388.23 2812.45C1445.87 2782.09 1495.44 2722.89 1530.6 2645.87C1565.77 2568.83 1586.55 2473.89 1586.55 2371.95C1586.55 2270.01 1566 2175.65 1531.23 2099.05C1496.47 2022.46 1447.45 1963.57 1390.47 1932.71L1389.62 1932.25L1389.13 1933.08ZM1169.75 2046.25C1128.35 2138.98 1103.97 2252.3 1103.97 2374.56V2375.56H1104.09C1104.22 2497.32 1128.46 2610.05 1169.63 2702.52L1169.96 2703.26L1170.75 2703.09C1203.09 2696.36 1233.24 2677.21 1259.23 2648.45L1259.6 2648.05L1259.45 2647.52C1235.71 2562.27 1223.19 2470 1223.19 2374.56C1223.19 2279.11 1235.71 2186.62 1259.45 2101.26L1259.6 2100.73L1259.23 2100.32C1233.24 2071.68 1203.09 2052.41 1170.87 2045.68L1170.08 2045.52L1169.75 2046.25ZM1106.41 2049.45C1100.51 2051.38 1094.73 2053.78 1088.97 2056.51L1088.68 2056.64L1088.53 2056.91C1040.89 2139.6 1011.58 2250.47 1011.58 2372.07V2372.18C1011.58 2496.84 1042.29 2610.09 1092.17 2693.57L1092.33 2693.84L1092.61 2693.97C1097.08 2696.02 1101.57 2697.84 1106.18 2699.33L1108.21 2699.98L1107.42 2698.01C1068.71 2601.47 1047.89 2490.57 1047.89 2374.56C1047.89 2258.55 1068.83 2147.3 1107.65 2050.77L1108.46 2048.77L1106.41 2049.45ZM1301.31 2165.07C1287 2230.78 1279.15 2301.26 1279.15 2374.56V2375.56H1279.27C1279.34 2448.5 1287.19 2518.4 1301.31 2583.82L1301.89 2586.55L1303.17 2584.07C1332.76 2526.53 1350.71 2453.14 1350.71 2374.44C1350.71 2295.75 1332.76 2222.36 1303.17 2164.82L1301.9 2162.34L1301.31 2165.07ZM973.003 2199.32C952.815 2250.48 940.965 2307.65 940.965 2374.44C940.965 2441.24 953.987 2504.3 975.938 2557.05L977.831 2556.43C963.331 2498.33 955.611 2436.16 955.611 2372.18C955.611 2312.61 962.278 2254.5 974.907 2199.91L973.003 2199.32ZM1299 1908.71C1282.63 1908.71 1266.62 1911.1 1250.97 1915.31L1250.67 1915.39L1250.47 1915.62C1230.52 1938.88 1212.09 1965.3 1195.55 1994.44L1194.92 1995.55L1196.15 1995.9C1225.39 2004.12 1252.79 2019.21 1277.39 2040.18L1278.5 2041.12L1278.98 2039.75C1295.01 1995.21 1314.19 1953.05 1336.64 1914.17L1337.33 1912.97L1335.98 1912.69C1323.98 1910.19 1311.61 1908.71 1299.12 1908.71H1299ZM1405.45 1813.55C1374.87 1820.94 1345.6 1834.69 1318.22 1853.77L1315.94 1855.35L1318.71 1855.58C1335.15 1856.93 1351.36 1859.98 1367.22 1864.71L1367.92 1864.92L1368.33 1864.32C1380.49 1846.81 1393.23 1830.31 1406.44 1815.18L1408.5 1812.81L1405.45 1813.55Z" stroke="#F9EC7F" stroke-width="2"/>
<path d="M1347.7 2820C1274.52 2820 1210.83 2853.7 1210.83 2907.89C1210.83 2935.01 1230.67 2957 1255.13 2957C1279.6 2957 1299.44 2935.01 1299.44 2907.89C1299.44 2853.7 1235.75 2820 1162.57 2820M1162.56 2820C1089.39 2820 1025.7 2853.7 1025.7 2907.89C1025.7 2935.01 1045.53 2957 1070 2957C1094.47 2957 1114.3 2935.01 1114.3 2907.89C1114.3 2853.7 1050.61 2820 977.439 2820M977.427 2820C904.253 2820 840.561 2853.69 840.561 2907.89C840.561 2935.01 860.398 2957 884.866 2957C909.334 2957 929.17 2935.01 929.17 2907.89C929.17 2853.7 865.478 2820 792.305 2820M1280.44 2909.03L1229.83 2909.03M1373 2909.03L1322.39 2909.03M1187.87 2909.03L1137.26 2909.03M1095.3 2909.03L1044.7 2909.03M1002.74 2909.03L952.134 2909.03M910.17 2909.03L859.561 2909.03M817.609 2909.03L767 2909.03" stroke="#B9F2FF" stroke-width="2" stroke-miterlimit="10" stroke-dasharray="8 4"/>
<path d="M1347.7 2692C1274.52 2692 1210.83 2725.7 1210.83 2779.89C1210.83 2807.01 1230.67 2829 1255.13 2829C1279.6 2829 1299.44 2807.01 1299.44 2779.89C1299.44 2725.7 1235.75 2692 1162.57 2692M1162.56 2692C1089.39 2692 1025.7 2725.7 1025.7 2779.89C1025.7 2807.01 1045.53 2829 1070 2829C1094.47 2829 1114.3 2807.01 1114.3 2779.89C1114.3 2725.7 1050.61 2692 977.439 2692M977.427 2692C904.253 2692 840.561 2725.7 840.561 2779.89C840.561 2807.01 860.398 2829 884.866 2829C909.334 2829 929.17 2807.01 929.17 2779.89C929.17 2725.7 865.478 2692 792.305 2692M1280.44 2781.03L1229.83 2781.03M1373 2781.03L1322.39 2781.03M1187.87 2781.03L1137.26 2781.03M1095.3 2781.03L1044.7 2781.03M1002.74 2781.03L952.134 2781.03M910.17 2781.03L859.561 2781.03M817.609 2781.03L767 2781.03" stroke="#B9F2FF" stroke-width="2" stroke-miterlimit="10"/>
</g>
<defs>
<clipPath id="clip8_1_4">
<path d="M848 2680C848 2676.69 850.686 2674 854 2674H1286C1289.31 2674 1292 2676.69 1292 2680V2974H848V2680Z" fill="white"/>
</clipPath>
<linearGradient id="paint7_linear_1_4" x1="1070" y1="2674" x2="1070" y2="2974" gradientUnits="userSpaceOnUse">
<stop stop-color="#8ABD6C"/>
<stop offset="1" stop-color="#EBD3A0"/>
</linearGradient>
</defs>
</svg>
